<svg width="622" height="657" viewBox="0 0 622 657" fill="none" xmlns="http://www.w3.org/2000/svg">
<path d="M561.566 17.9997L611.045 100.082" stroke="#DCB2FD" stroke-width="0.75" stroke-miterlimit="10"/>
<path d="M569.461 17.4414L611.599 87.345" stroke="#DCB2FD" stroke-width="0.75" stroke-miterlimit="10"/>
<path d="M577.688 17.4414L611.595 73.6916" stroke="#DCB2FD" stroke-width="0.75" stroke-miterlimit="10"/>
<path d="M586.258 17.9997L611.046 59.1215" stroke="#DCB2FD" stroke-width="0.75" stroke-miterlimit="10"/>
<path d="M593.965 17.1363L611.043 45.4683" stroke="#DCB2FD" stroke-width="0.75" stroke-miterlimit="10"/>
<path d="M561.566 638.497L611.045 556.415" stroke="#DCB2FD" stroke-width="0.75" stroke-miterlimit="10"/>
<path d="M569.461 639.055L611.599 569.151" stroke="#DCB2FD" stroke-width="0.75" stroke-miterlimit="10"/>
<path d="M577.688 639.055L611.595 582.805" stroke="#DCB2FD" stroke-width="0.75" stroke-miterlimit="10"/>
<path d="M586.258 638.497L611.046 597.375" stroke="#DCB2FD" stroke-width="0.75" stroke-miterlimit="10"/>
<path d="M593.965 639.361L611.043 611.029" stroke="#DCB2FD" stroke-width="0.75" stroke-miterlimit="10"/>
<path d="M601.98 639.72L611.599 623.764" stroke="#DCB2FD" stroke-width="0.75" stroke-miterlimit="10"/>
<path d="M61.0387 638.497L11.5488 556.415" stroke="#DCB2FD" stroke-width="0.75" stroke-miterlimit="10"/>
<path d="M53.1468 639.055L10.998 569.151" stroke="#DCB2FD" stroke-width="0.75" stroke-miterlimit="10"/>
<path d="M44.9166 639.055L10.998 582.805" stroke="#DCB2FD" stroke-width="0.75" stroke-miterlimit="10"/>
<path d="M36.348 638.497L11.5488 597.375" stroke="#DCB2FD" stroke-width="0.75" stroke-miterlimit="10"/>
<path d="M28.6382 639.361L11.5488 611.029" stroke="#DCB2FD" stroke-width="0.75" stroke-miterlimit="10"/>
<path d="M20.6162 639.72L10.998 623.764" stroke="#DCB2FD" stroke-width="0.75" stroke-miterlimit="10"/>
<path d="M61.0387 17.9997L11.5488 100.082" stroke="#DCB2FD" stroke-width="0.75" stroke-miterlimit="10"/>
<path d="M53.1468 17.4414L10.998 87.345" stroke="#DCB2FD" stroke-width="0.75" stroke-miterlimit="10"/>
<path d="M44.9166 17.4414L10.998 73.6916" stroke="#DCB2FD" stroke-width="0.75" stroke-miterlimit="10"/>
<path d="M36.348 17.9997L11.5488 59.1215" stroke="#DCB2FD" stroke-width="0.75" stroke-miterlimit="10"/>
<path d="M28.6382 17.1363L11.5488 45.4683" stroke="#DCB2FD" stroke-width="0.75" stroke-miterlimit="10"/>
<path d="M20.6162 16.7758L10.998 32.7317" stroke="#DCB2FD" stroke-width="0.75" stroke-miterlimit="10"/>
<path d="M544.824 36.995H76.1019L22.459 125.984V523.82L76.1019 620.005H544.824L599.551 523.82V125.984L544.824 36.995Z" stroke="#DCB2FD" stroke-width="2" stroke-miterlimit="10"/>
<path d="M1.50965 129.295L78.8565 1H543.816L621 129.025V528.623L544.217 656H80.4179L1 524.27L1.50965 129.295Z" stroke="#DCB2FD" stroke-miterlimit="10"/>
<path d="M596.212 17.9997H25.7886C17.62 17.9997 10.998 28.985 10.998 42.5361V614.465C10.998 628.016 17.62 639.001 25.7886 639.001H596.212C604.381 639.001 611.003 628.016 611.003 614.465V42.5361C611.003 28.985 604.381 17.9997 596.212 17.9997Z" stroke="#DCB2FD" stroke-width="5" stroke-miterlimit="10"/>
</svg>
